<svg width="73" height="74" viewBox="0 0 73 74" fill="none" xmlns="http://www.w3.org/2000/svg">
<path d="M50.7312 36.0091C50.9547 34.2354 50.8126 32.4315 50.3136 30.7089C49.8147 28.9862 48.9682 27.3806 47.8289 25.9924C46.6896 24.6042 45.2803 23.4624 43.688 22.637C42.0957 21.8116 40.3539 21.3198 38.5706 21.193M60.5256 35.3952C60.8832 32.5573 60.6558 29.6711 59.8575 26.9149C59.0592 24.1587 57.7069 21.5913 55.8839 19.3702C54.061 17.1491 51.8068 15.3231 49.2591 14.0024C46.7114 12.6818 43.9239 11.8948 41.0706 11.6918M70.9072 36.7944C71.4436 32.5375 71.1025 28.2083 69.905 24.0739C68.7075 19.9396 66.6809 16.0887 63.9464 12.757C61.212 9.42537 57.8275 6.68237 54.0059 4.7014C50.1844 2.72043 46.003 1.54176 41.7229 1.23734" stroke="white" stroke-width="2" stroke-linecap="round" stroke-linejoin="round"/>
<path d="M41.3125 72.5518H44M33.25 72.5518H27.875V64.4893M35.9375 64.4893H44V56.4268H41.3125M27.875 56.4268H33.25M1 64.4886C1 61.9841 1 60.7319 1.40915 59.7441C1.95468 58.4271 3.00036 57.3814 4.31738 56.8359C5.30515 56.4268 6.55737 56.4268 9.06181 56.4268C11.5662 56.4268 12.8198 56.4268 13.8076 56.8359C15.1246 57.3814 16.17 58.4271 16.7156 59.7441C17.1247 60.7319 17.1247 61.9848 17.1247 64.4893C17.1247 66.9937 17.1247 68.2459 16.7156 69.2337C16.17 70.5507 15.1246 71.5968 13.8076 72.1423C12.8198 72.5515 11.5662 72.5515 9.06181 72.5515C6.55738 72.5515 5.30515 72.5515 4.31738 72.1423C3.00036 71.5968 1.95468 70.5514 1.40915 69.2344C1 68.2466 1 66.993 1 64.4886ZM27.875 37.6136C27.875 35.1091 27.875 33.8569 28.2841 32.8691C28.8297 31.5521 29.8754 30.5064 31.1924 29.9609C32.1802 29.5518 33.4324 29.5518 35.9368 29.5518C38.4412 29.5518 39.6948 29.5518 40.6826 29.9609C41.9996 30.5064 43.045 31.5521 43.5906 32.8691C43.9997 33.8569 43.9997 35.1098 43.9997 37.6143C43.9997 40.1187 43.9997 41.3709 43.5906 42.3587C43.045 43.6757 41.9996 44.7218 40.6826 45.2673C39.6948 45.6765 38.4412 45.6765 35.9368 45.6765C33.4324 45.6765 32.1802 45.6765 31.1924 45.2673C29.8754 44.7218 28.8297 43.6764 28.2841 42.3594C27.875 41.3716 27.875 40.118 27.875 37.6136ZM1 37.6136C1 35.1091 1 33.8569 1.40915 32.8691C1.95468 31.5521 3.00036 30.5064 4.31738 29.9609C5.30515 29.5518 6.55737 29.5518 9.06181 29.5518C11.5662 29.5518 12.8198 29.5518 13.8076 29.9609C15.1246 30.5064 16.17 31.5521 16.7156 32.8691C17.1247 33.8569 17.1247 35.1098 17.1247 37.6143C17.1247 40.1187 17.1247 41.3709 16.7156 42.3587C16.17 43.6757 15.1246 44.7218 13.8076 45.2673C12.8198 45.6765 11.5662 45.6765 9.06181 45.6765C6.55738 45.6765 5.30515 45.6765 4.31738 45.2673C3.00036 44.7218 1.95468 43.6764 1.40915 42.3594C1 41.3716 1 40.118 1 37.6136Z" stroke="white" stroke-width="2" stroke-linecap="round" stroke-linejoin="round"/>
</svg>
