<svg width="61" height="61" viewBox="0 0 61 61" fill="none" xmlns="http://www.w3.org/2000/svg">
<path d="M41.1875 59H19.8125M13.389 48.3125C9.40642 48.3125 7.41216 48.3125 5.88953 47.5367C4.54887 46.8536 3.45968 45.7607 2.77658 44.4201C2.34551 43.5741 2.15372 42.5837 2.06839 41.1875M13.389 48.3125H47.611M13.389 48.3125H7.69861C5.70342 48.3125 4.70682 48.3111 3.94476 47.9229C3.27444 47.5813 2.72984 47.0405 2.38829 46.3701C2 45.6081 2 44.6077 2 42.6125V41.1875H2.06839M2.06839 41.1875C2 40.0684 2 38.6885 2 36.9132V13.4007C2 9.41032 2 7.41365 2.77658 5.88953C3.45968 4.54887 4.54887 3.45968 5.88953 2.77658C7.41365 2 9.41032 2 13.4007 2H47.6007C51.5911 2 53.5835 2 55.1076 2.77658C56.4482 3.45968 57.5411 4.54887 58.2242 5.88953C59 7.41216 59 9.40642 59 13.389V36.9235C59 38.6936 59 40.0704 58.9319 41.1875M2.06839 41.1875H58.9319M58.9319 41.1875H59V42.6125C59 44.6077 58.9986 45.6081 58.6104 46.3701C58.2688 47.0405 57.7259 47.5813 57.0555 47.9229C56.2935 48.3111 55.2938 48.3125 53.2986 48.3125H47.611M58.9319 41.1875C58.8997 41.7159 58.8522 42.1862 58.7823 42.6125M47.611 48.3125C51.5936 48.3125 53.585 48.3125 55.1076 47.5367C56.4482 46.8536 57.5411 45.7607 58.2242 44.4201C58.4921 43.8943 58.6674 43.3127 58.7823 42.6125M3.425 42.6125H58.7823M4.1375 44.0375H57.0555L55.4375 45.4625H5.5625" stroke="white" stroke-width="3" stroke-linecap="round" stroke-linejoin="round"/>
</svg>
