<svg width="12" height="20" viewBox="0 0 12 20" fill="none" xmlns="http://www.w3.org/2000/svg">
<path d="M1.41014 13.6572C1.90969 13.1914 2.3085 12.6281 2.58196 12.0022C2.85542 11.3763 2.99754 10.7005 2.99993 10.0174C3.00231 9.33436 2.86466 8.65815 2.59557 8.03033C2.32649 7.40251 1.93171 6.83628 1.43542 6.36697M4.45607 15.8506C5.25535 15.1052 5.89345 14.204 6.33098 13.2025C6.76852 12.2011 6.99611 11.1207 6.99993 10.0279C7.00374 8.93498 6.78349 7.85343 6.35296 6.84892C5.92243 5.84441 5.29058 4.93825 4.49652 4.18734M7.18365 18.7764C8.38258 17.6583 9.33972 16.3065 9.99602 14.8043C10.6523 13.3021 10.9942 11.6821 10.9999 10.0428C11.0056 8.40345 10.6753 6.77917 10.0295 5.27241C9.38368 3.76564 8.43542 2.40689 7.24432 1.28053" stroke="white" stroke-width="2" stroke-linecap="round" stroke-linejoin="round"/>
</svg>
