<svg width="27" height="48" viewBox="0 0 27 48" fill="none" xmlns="http://www.w3.org/2000/svg">
<path d="M0.999999 33.5408C2.3023 32.316 3.34196 30.8351 4.05484 29.1894C4.76773 27.5437 5.13824 25.7669 5.14445 23.971C5.15067 22.1751 4.79182 20.3972 4.09034 18.7466C3.38886 17.0959 2.35969 15.6072 1.0659 14.3733M8.9405 39.3075C11.0242 37.3479 12.6876 34.9784 13.8282 32.3453C14.9689 29.7123 15.5622 26.8718 15.5721 23.9985C15.5821 21.1251 15.0079 18.2815 13.8855 15.6404C12.7632 12.9994 11.116 10.6169 9.04595 8.64259M16.0511 47C19.1766 44.0605 21.6718 40.5063 23.3827 36.5567C25.0936 32.6071 25.9849 28.3477 25.9998 24.0376C26.0147 19.7276 25.1535 15.457 23.4699 11.4954C21.7864 7.53386 19.3143 3.96143 16.2093 0.999999" stroke="white" stroke-width="2" stroke-linecap="round" stroke-linejoin="round"/>
</svg>
