<svg width="45" height="45" viewBox="0 0 45 45" fill="none" xmlns="http://www.w3.org/2000/svg">
<path d="M41.3125 44H44M33.25 44H27.875V35.9375M35.9375 35.9375H44V27.875H41.3125M27.875 27.875H33.25M1 35.9368C1 33.4324 1 32.1802 1.40915 31.1924C1.95468 29.8754 3.00036 28.8297 4.31738 28.2841C5.30515 27.875 6.55737 27.875 9.06181 27.875C11.5662 27.875 12.8198 27.875 13.8076 28.2841C15.1246 28.8297 16.17 29.8754 16.7156 31.1924C17.1247 32.1802 17.1247 33.4331 17.1247 35.9375C17.1247 38.4419 17.1247 39.6942 16.7156 40.6819C16.17 41.9989 15.1246 43.045 13.8076 43.5906C12.8198 43.9997 11.5662 43.9997 9.06181 43.9997C6.55738 43.9997 5.30515 43.9997 4.31738 43.5906C3.00036 43.045 1.95468 41.9996 1.40915 40.6826C1 39.6948 1 38.4412 1 35.9368ZM27.875 9.06181C27.875 6.55737 27.875 5.30515 28.2841 4.31738C28.8297 3.00036 29.8754 1.95468 31.1924 1.40915C32.1802 1 33.4324 1 35.9368 1C38.4412 1 39.6948 1 40.6826 1.40915C41.9996 1.95468 43.045 3.00036 43.5906 4.31738C43.9997 5.30515 43.9997 6.55807 43.9997 9.0625C43.9997 11.5669 43.9997 12.8192 43.5906 13.8069C43.045 15.1239 41.9996 16.17 40.6826 16.7156C39.6948 17.1247 38.4412 17.1247 35.9368 17.1247C33.4324 17.1247 32.1802 17.1247 31.1924 16.7156C29.8754 16.17 28.8297 15.1246 28.2841 13.8076C27.875 12.8198 27.875 11.5662 27.875 9.06181ZM1 9.06181C1 6.55737 1 5.30515 1.40915 4.31738C1.95468 3.00036 3.00036 1.95468 4.31738 1.40915C5.30515 1 6.55737 1 9.06181 1C11.5662 1 12.8198 1 13.8076 1.40915C15.1246 1.95468 16.17 3.00036 16.7156 4.31738C17.1247 5.30515 17.1247 6.55807 17.1247 9.0625C17.1247 11.5669 17.1247 12.8192 16.7156 13.8069C16.17 15.1239 15.1246 16.17 13.8076 16.7156C12.8198 17.1247 11.5662 17.1247 9.06181 17.1247C6.55738 17.1247 5.30515 17.1247 4.31738 16.7156C3.00036 16.17 1.95468 15.1246 1.40915 13.8076C1 12.8198 1 11.5662 1 9.06181Z" stroke="white" stroke-width="2" stroke-linecap="round" stroke-linejoin="round"/>
</svg>
