<svg width="31" height="39" viewBox="0 0 31 39" fill="none" xmlns="http://www.w3.org/2000/svg">
<path d="M17.5712 1.00179C17.3734 1 17.1513 1 16.8974 1H7.62888C5.3087 1 4.14774 1 3.26155 1.44808C2.48203 1.84223 1.84872 2.47069 1.45154 3.24425C1 4.12366 1 5.27574 1 7.57818V31.4226C1 33.7251 1 34.8757 1.45154 35.7551C1.84872 36.5287 2.48203 37.1582 3.26155 37.5524C4.14688 38 5.30645 38 7.62214 38L23.3775 38C25.6932 38 26.851 38 27.7364 37.5524C28.5159 37.1582 29.1513 36.5286 29.5485 35.7551C29.9996 34.8765 29.9996 33.7275 29.9996 31.4296V14.0028C29.9996 13.7505 29.9995 13.5299 29.9977 13.3333M17.5712 1.00179C18.1629 1.00713 18.5372 1.02846 18.8945 1.11359C19.3172 1.2143 19.721 1.38082 20.0917 1.60623C20.5096 1.86039 20.8685 2.21652 21.5845 2.92708L28.0587 9.35169C28.7752 10.0627 29.1314 10.4172 29.3876 10.8321C29.6148 11.1999 29.7828 11.601 29.8843 12.0205C29.97 12.3749 29.992 12.7465 29.9977 13.3333M17.5712 1.00179V6.75555C17.5712 9.05799 17.5712 10.2084 18.0227 11.0878C18.4199 11.8614 19.0532 12.4915 19.8327 12.8857C20.7181 13.3333 21.8776 13.3333 24.1933 13.3333H29.9977M29.9977 13.3333H30" stroke="white" stroke-width="2" stroke-linecap="round" stroke-linejoin="round"/>
</svg>
