<svg width="20" height="16" viewBox="0 0 20 16" fill="none" xmlns="http://www.w3.org/2000/svg">
<path d="M6.34277 10.5899C6.80861 10.0903 7.37187 9.6915 7.9978 9.41804C8.62372 9.14458 9.29954 9.00246 9.98259 9.00007C10.6656 8.99769 11.3419 9.13534 11.9697 9.40443C12.5975 9.67351 13.1637 10.0683 13.633 10.5646M4.14941 7.54393C4.89476 6.74465 5.79597 6.10655 6.79745 5.66902C7.79893 5.23148 8.87926 5.00389 9.97214 5.00007C11.065 4.99626 12.1466 5.21651 13.1511 5.64704C14.1556 6.07757 15.0617 6.70942 15.8127 7.50348M1.22363 4.81635C2.34165 3.61742 3.69347 2.66028 5.19569 2.00398C6.69791 1.34768 8.31792 1.0058 9.95724 1.00007C11.5966 0.994351 13.2208 1.32472 14.7276 1.97052C16.2344 2.61632 17.5931 3.56458 18.7195 4.75568M10 15.0001C9.44772 15.0001 9 14.5524 9 14.0001C9 13.4478 9.44772 13.0001 10 13.0001C10.5523 13.0001 11 13.4478 11 14.0001C11 14.5524 10.5523 15.0001 10 15.0001Z" stroke="white" stroke-width="2" stroke-linecap="round" stroke-linejoin="round"/>
</svg>
